<svg width="339" height="273" fill="none" xmlns="http://www.w3.org/2000/svg"><path d="M4.543 116.442l.529-12.98.5.02.264-6.49a43.6 43.6 0 01.87-7.073l-.49-.101a43.881 43.881 0 015.178-13.4l.43.254a43.613 43.613 0 019.114-10.894l-.326-.379a43.88 43.88 0 0112.275-7.463l.186.464a43.607 43.607 0 016.808-2.105L46 54.938l-.108-.488 12.236-2.714.108.489 12.237-2.714-.109-.488L82.6 46.309l.109.488 12.236-2.714-.109-.488 12.237-2.714.108.488 12.236-2.713-.108-.489 12.236-2.713.108.488 12.236-2.714-.108-.488 12.236-2.714.108.488 12.237-2.713-.109-.489 12.236-2.713.109.488 12.236-2.714-.108-.488 12.236-2.714.108.488 12.236-2.713-.108-.489 12.236-2.713.108.488 12.236-2.714-.108-.488 12.236-2.714.109.488L266.25 6.09l-.109-.488 12.237-2.713.108.488 6.118-1.357a44.287 44.287 0 016.609-.954l-.034-.499a43.448 43.448 0 0113.401 1.175l-.12.486a43.42 43.42 0 0112.266 5.148l.261-.427a44.495 44.495 0 0110.271 8.696l-.377.328a43.417 43.417 0 017.101 11.249l.459-.199a43.47 43.47 0 013.37 13.024l-.498.049c.215 2.177.269 4.406.15 6.675l-.311 5.916.499.027-.622 11.832-.499-.026-.622 11.832.499.027-.622 11.832-.499-.026-.622 11.832.499.026-.622 11.833-.499-.026-.311 5.916-.298 5.674.499.026-.596 11.349-.5-.027-.596 11.349.499.026-.597 11.348-.499-.026-.596 11.348.499.027-.597 11.348-.499-.026-.596 11.348.499.026-.597 11.349-.499-.027-.298 5.674a43.832 43.832 0 01-.575 5.138l.493.085a43.756 43.756 0 01-2.983 9.998l-.458-.199a43.435 43.435 0 01-5.202 8.909l.399.302a44.166 44.166 0 01-7.231 7.523l-.317-.387a43.494 43.494 0 01-8.697 5.55l.217.45a43.756 43.756 0 01-9.872 3.375l-.104-.489a43.742 43.742 0 01-5.111.778l-6.038.557.046.498-12.075 1.115-.046-.498-12.076 1.115.046.498-12.075 1.115-.046-.498-12.076 1.115.046.497-12.075 1.115-.046-.498-12.076 1.115.046.498-12.075 1.115-.046-.498-12.075 1.115.046.498-12.076 1.114-.046-.497-12.075 1.114.046.498-12.076 1.115-.046-.498-12.075 1.115.046.498-12.076 1.115-.045-.498-12.076 1.115.046.497-12.075 1.115-.046-.498-12.076 1.115.046.498-12.075 1.115-.046-.498-12.076 1.115.046.498-12.075 1.115-.046-.498-6.038.557a44.106 44.106 0 01-6.174.138l-.024.499a43.604 43.604 0 01-12.224-2.364l.164-.473a43.416 43.416 0 01-10.938-5.652l-.29.407a44.365 44.365 0 01-9.029-8.577l.392-.311a43.434 43.434 0 01-6.206-10.632l-.463.188a43.595 43.595 0 01-2.989-12.087l.498-.05a44.07 44.07 0 01-.18-6.173l.265-6.49-.5-.02.53-12.981.499.021.529-12.98-.5-.021.53-12.98.499.02.529-12.98-.5-.02.529-12.98.5.02.529-12.98-.5-.021.529-12.98.5.02.528-12.98-.5-.02z" fill="#FBFBFB" stroke="#D9DADB" stroke-dasharray="12 12"/></svg>