<svg width="1088" height="299" fill="none" xmlns="http://www.w3.org/2000/svg"><path d="M1072.61 170.89l-1.43 11.517-.5-.062-.72 5.758c-.2 1.666-.5 3.302-.89 4.901l.48.118a43.537 43.537 0 01-3.47 9.438l-.45-.225a43.195 43.195 0 01-5.46 8.304l.38.321a44.424 44.424 0 01-7.29 6.927l-.3-.399a43.78 43.78 0 01-8.58 5.036l.2.457a43.673 43.673 0 01-9.6 2.985l-.09-.492c-1.62.306-3.27.521-4.94.643l-5.99.435.03.499-11.98.87-.04-.499-11.978.871.038.498-11.984.87-.036-.498-11.982.87.036.499-11.982.87-.037-.499-11.982.87.036.499-11.982.87-.036-.498-11.982.87.036.499-11.982.87-.037-.499-11.982.87.036.499-11.982.87-.036-.498-11.982.87.036.498-11.982.871-.036-.499-11.983.87.036.499-11.982.87-.036-.499-11.982.871.036.498-11.982.871-.036-.499-11.983.87.037.499-11.983.87-.036-.499-11.982.87.036.499-11.982.87-.036-.498-11.983.87.037.499-11.983.87-.036-.499-11.982.87.036.499-11.982.87-.036-.498-11.983.87.037.498-11.983.871-.036-.499-11.982.87.036.499-11.982.87-.036-.499-11.982.871.036.498-11.983.871-.036-.499-11.982.87.036.499-11.982.87-.036-.499-11.982.871.036.498-11.982.87-.037-.498-11.982.87.036.499-11.982.87-.036-.499-11.982.87.036.499-11.982.87-.037-.498-11.982.87.036.499-11.982.87-.036-.499-11.982.87.036.499-11.982.87-.037-.498-11.982.87.036.498-11.982.871-.036-.499-11.982.87.036.499-11.982.87-.036-.499-11.983.871.036.498-11.982.87-.036-.498-11.982.87.036.499-11.982.87-.036-.499-11.983.87.037.499-11.983.87-.036-.498-11.982.87.036.499-11.982.87-.036-.499-11.983.87.037.499-11.983.87-.036-.498-11.982.87.036.498-11.982.871-.036-.499-11.983.87.037.499-11.983.87-.036-.499-11.982.871.036.498-11.982.871-.036-.499-11.982.87.036.499-11.982.87-.037-.499-11.982.871.036.498-11.982.87-.036-.498-11.982.87.036.499-11.982.87-.037-.499-11.982.87.036.499-11.982.87-.036-.498-11.982.87.036.499-11.982.87-.036-.499-11.983.87.036.499-11.982.87-.036-.499-11.982.871.036.498-11.982.871-.036-.499-11.983.87.037.499-11.983.87-.036-.499-11.982.871.036.498-11.982.87-.036-.498-5.992.435a44.12 44.12 0 01-6.535-.007l-.037.499A43.501 43.501 0 0128 295.006l.185-.465a43.42 43.42 0 01-11.235-6.582l-.315.389a44.461 44.461 0 01-8.902-9.709l.414-.28a43.414 43.414 0 01-5.584-11.763l-.479.144a43.494 43.494 0 01-1.84-13.04l.5.006c.024-2.143.207-4.317.56-6.511l1.078-6.718-.494-.079 2.157-13.436.494.079 2.156-13.436-.493-.079 2.156-13.436.494.079 2.157-13.436-.494-.079 2.157-13.436.493.079 1.079-6.718.999-6.224-.494-.08 1.998-12.449.494.08 1.998-12.449-.493-.08 1.998-12.449.494.08 1.998-12.45-.494-.079L24.74 98.03l.494.08 1.998-12.45-.493-.079 1.998-12.449.494.08.999-6.225a43.72 43.72 0 011.074-4.89l-.481-.136a43.817 43.817 0 013.834-9.352l.438.242a43.473 43.473 0 015.807-8.133l-.37-.335a44.149 44.149 0 017.593-6.673l.285.411a43.471 43.471 0 018.812-4.713l-.184-.465a43.819 43.819 0 019.767-2.6l.073.495a43.75 43.75 0 014.988-.437l6.067-.184-.016-.5 12.136-.366.015.5 12.135-.367-.015-.5 12.135-.367.015.5 12.135-.367-.015-.5 12.136-.367.015.5 12.135-.367-.015-.5 12.135-.366.015.5 12.135-.367-.015-.5 12.135-.367.015.5 12.136-.367-.016-.5 12.136-.367.015.5 12.135-.367-.015-.5 12.135-.367.015.5 12.135-.367-.015-.5 12.135-.366.016.5 12.135-.367-.015-.5 12.135-.367.015.5 12.135-.367-.015-.5 12.135-.367.015.5 12.136-.367-.015-.5 12.135-.366.015.5 12.135-.368-.015-.5 12.135-.366.015.5 12.135-.367-.015-.5 12.135-.367.016.5 12.135-.367-.015-.5 12.135-.367.015.5 12.135-.367-.015-.5 12.135-.366.015.5 12.136-.367-.015-.5 12.135-.367.015.5 12.135-.367-.015-.5 12.135-.367.015.5 12.135-.367-.015-.5 12.136-.367.015.5 12.135-.367-.015-.5 12.135-.366.015.5 12.135-.367-.015-.5 12.135-.367.015.5 12.136-.367-.016-.5 12.136-.367.015.5 12.135-.367-.015-.5 12.135-.366.015.5 12.135-.368-.015-.5 12.135-.366.015.5 12.136-.367-.015-.5 12.135-.367.015.5 12.135-.367-.015-.5 12.135-.367.015.5 12.135-.367-.015-.5 12.135-.366.016.5 12.135-.367-.015-.5 12.135-.367.015.5 12.135-.367-.015-.5 12.135-.367.015.5 12.135-.367-.015-.5 12.135-.367.016.5 12.135-.367-.015-.5 12.135-.366.015.5 12.135-.367-.015-.5 12.135-.367.015.5 12.135-.367-.015-.5 12.135-.367.016.5 12.135-.367-.015-.5 12.135-.367.015.5 12.135-.367-.015-.5 12.135-.366.015.5 12.135-.367-.015-.5 12.135-.367.016.5 12.135-.367-.015-.5 12.135-.367.015.5 12.135-.367-.015-.5 12.135-.366.015.5 12.136-.368-.016-.5 12.136-.366.015.5 12.138-.367-.02-.5 12.14-.367.01.5 12.14-.367-.02-.5 12.14-.367.01.5 6.07-.183c2.12-.064 4.21.023 6.25.252l.05-.497a43.67 43.67 0 0112.2 3.196l-.2.46a43.2 43.2 0 0110.65 6.473l.32-.386a44.317 44.317 0 018.49 9.323l-.41.28a43.388 43.388 0 015.44 11.21l.48-.15a43.151 43.151 0 012.04 12.437l-.5.01c.04 2.053-.07 4.138-.33 6.244l-.72 5.758.5.062-1.43 11.516-.5-.061-1.43 11.516.49.062-1.43 11.517-.49-.062-1.44 11.517.5.061-1.43 11.517-.5-.062-1.43 11.517.49.062-1.43 11.516-.5-.062-1.43 11.517.5.062-1.44 11.516-.49-.061-1.44 11.516.5.062z" fill="#FBFBFB" stroke="#D9DADB" stroke-dasharray="12 12"/></svg>