<svg width="1089" height="299" fill="none" xmlns="http://www.w3.org/2000/svg"><path d="M16.39 128.11l1.434-11.517.496.062.717-5.758c.207-1.666.507-3.302.895-4.901l-.486-.118a43.83 43.83 0 013.473-9.438l.447.225a43.471 43.471 0 015.469-8.304l-.384-.32a44.151 44.151 0 017.292-6.928l.301.4a43.477 43.477 0 018.574-5.037l-.202-.457a43.823 43.823 0 019.604-2.985l.092.491a43.753 43.753 0 014.94-.642l5.991-.435-.036-.499 11.983-.87.036.499 11.982-.87-.036-.5 11.982-.87.036.5 11.982-.871-.036-.499 11.982-.87.037.499 11.982-.87-.036-.5 11.982-.87.036.5 11.982-.87-.036-.5 11.982-.87.037.499 11.982-.87-.036-.499 11.982-.87.036.498 11.982-.87-.036-.498 11.982-.87.036.498 11.983-.87-.036-.499 11.982-.87.036.499 11.982-.87-.036-.5 11.982-.87.036.5 11.983-.871-.037-.499 11.983-.87.036.499 11.982-.87-.036-.5 11.982-.87.036.5 11.983-.87-.037-.5 11.983-.87.036.499 11.982-.87-.036-.499 11.982-.87.036.498 11.983-.87-.037-.498 11.983-.87.036.498 11.982-.87-.036-.499 11.982-.87.036.499 11.982-.87-.036-.5 11.983-.87.036.5 11.982-.871-.036-.499 11.982-.87.036.499 11.982-.87-.036-.5 11.982-.87.037.5 11.982-.871-.036-.499 11.982-.87.036.499 11.982-.87-.036-.5 11.982-.87.037.5 11.982-.87-.036-.5 11.982-.87.036.499 11.982-.87-.036-.499 11.982-.87.037.498 11.982-.87-.036-.498 11.982-.87.036.498 11.982-.87-.036-.499 11.982-.87.036.499 11.983-.87-.036-.5 11.982-.87.036.5 11.982-.871-.036-.499 11.982-.87.036.499 11.983-.87-.037-.5 11.983-.87.036.5 11.982-.87-.036-.5 11.982-.87.036.499 11.983-.87-.037-.499 11.983-.87.036.498 11.982-.87-.036-.498 11.982-.87.036.498 11.983-.87-.037-.499 11.983-.87.036.499 11.982-.87-.036-.5 11.982-.87.036.5 11.982-.871-.036-.499 11.982-.87.037.499 11.982-.87-.036-.5 11.982-.87.036.5 11.982-.87-.036-.5 11.982-.87.037.499 11.982-.87-.036-.5 11.982-.87.036.5 11.982-.87-.036-.5 11.982-.87.036.499 11.983-.87-.036-.499 11.982-.87.036.499 11.982-.87-.036-.5 11.982-.87.036.5 11.983-.871-.037-.499 11.979-.87.04.499 11.98-.87-.03-.5 11.98-.87.03.5 6-.436a44.19 44.19 0 016.53.007l.04-.5A43.61 43.61 0 011061 3.994l-.19.465a43.51 43.51 0 0111.24 6.582l.31-.39a44.352 44.352 0 018.91 9.71l-.42.28a43.481 43.481 0 015.59 11.763l.48-.144a43.69 43.69 0 011.84 13.04l-.5-.006a45.335 45.335 0 01-.56 6.511l-1.08 6.718.49.08-2.15 13.435-.5-.079-2.16 13.436.5.08-2.16 13.435-.49-.08-2.16 13.437.49.079-2.15 13.436-.5-.079-1.07 6.718-1 6.224.49.08-2 12.449-.49-.08-2 12.449.49.08-1.99 12.449-.5-.08-2 12.45.5.079-2 12.449-.49-.079-2 12.449.49.079-2 12.449-.49-.079-1 6.224a45.971 45.971 0 01-1.07 4.891l.48.135a43.74 43.74 0 01-3.84 9.352l-.44-.242a43.14 43.14 0 01-5.8 8.133l.37.335a44.562 44.562 0 01-7.59 6.673l-.29-.411a43.639 43.639 0 01-8.81 4.713l.18.465a43.77 43.77 0 01-9.77 2.6l-.07-.495c-1.63.239-3.3.386-4.99.437l-6.06.184.01.499-12.133.367-.015-.5-12.135.367.015.5-12.135.367-.015-.5-12.135.367.015.5-12.136.367-.015-.5-12.135.367.015.5-12.135.366-.015-.499-12.135.366.015.5-12.135.367-.015-.5-12.136.367.016.5-12.136.367-.015-.5-12.135.367.015.5-12.135.367-.015-.5-12.135.367.015.499-12.135.367-.016-.499-12.135.366.015.5-12.135.367-.015-.5-12.135.367.015.5-12.135.367-.015-.5-12.136.367.015.5-12.135.367-.015-.5-12.135.367.015.499-12.135.367-.015-.5-12.135.367.015.5-12.135.367-.016-.5-12.135.367.015.5-12.135.367-.015-.5-12.135.367.015.5-12.135.366-.015-.499-12.136.367.015.499-12.135.367-.015-.5-12.135.367.015.5-12.135.367-.015-.5-12.135.367.015.5-12.136.367-.015-.5-12.135.367.015.499-12.135.367-.015-.499-12.135.366.015.5-12.135.367-.015-.5-12.136.367.016.5-12.136.367-.015-.5-12.135.367.015.5-12.135.367-.015-.5-12.135.367.015.499-12.135.367-.015-.5-12.136.367.015.5-12.135.367-.015-.5-12.135.367.015.5-12.135.367-.015-.5-12.135.367.015.5-12.135.366-.016-.499-12.135.367.015.499-12.135.367-.015-.5-12.135.367.015.5-12.135.367-.015-.5-12.135.367.015.5-12.135.367-.016-.5-12.135.367.015.499-12.135.367-.015-.499-12.135.366.015.5-12.135.367-.015-.5-12.135.367.015.5-12.135.367-.016-.5-12.135.367.015.5-12.135.367-.015-.5-12.135.367.015.499-12.135.367-.015-.5-12.135.367.015.5-12.135.367-.016-.5-12.135.367.015.5-12.135.367-.015-.5-12.135.367.015.5-12.135.366-.015-.499-12.136.367.016.499-12.136.367-.015-.5-12.135.367.015.5-12.135.367-.015-.5-12.135.367.015.5-12.135.367-.015-.5-6.068.183a44.086 44.086 0 01-6.248-.252l-.056.497a43.586 43.586 0 01-12.193-3.196l.196-.461a43.408 43.408 0 01-10.652-6.472l-.318.386a44.383 44.383 0 01-8.489-9.323l.414-.281a43.41 43.41 0 01-5.449-11.21l-.476.152a43.57 43.57 0 01-2.043-12.438l.5-.009c-.037-2.054.07-4.139.333-6.245l.716-5.758-.496-.062 1.433-11.516.496.061 1.433-11.516-.496-.062 1.434-11.517.496.062 1.433-11.517-.496-.061 1.433-11.517.496.062 1.433-11.517-.496-.062 1.433-11.516.496.062 1.434-11.517-.497-.062 1.434-11.516.496.061 1.433-11.516-.496-.062z" fill="#FBFBFB" stroke="#D9DADB" stroke-dasharray="12 12"/></svg>