<svg width="339" height="273" fill="none" xmlns="http://www.w3.org/2000/svg"><path d="M334.455 116.38l-.53-13.005-.499.021-.264-6.503a43.528 43.528 0 00-.867-7.052l.488-.101a43.749 43.749 0 00-5.164-13.36l-.429.253a43.49 43.49 0 00-9.087-10.862l.325-.378a43.755 43.755 0 00-12.238-7.442l-.186.463a43.499 43.499 0 00-6.788-2.099l-6.125-1.358.108-.487-12.249-2.717-.108.487-12.249-2.717.107-.486-12.249-2.717-.108.487-12.249-2.717.108-.487-12.249-2.716-.108.486-12.249-2.716.108-.487-12.249-2.717-.108.487-12.25-2.716.108-.487-12.249-2.717-.108.487-12.249-2.717.108-.487-12.249-2.716-.108.486-12.249-2.716.108-.487-12.25-2.717-.108.487-12.249-2.716.108-.487-12.249-2.717-.108.487-12.25-2.717.109-.486-12.25-2.717-.107.487-12.25-2.717.108-.487-12.249-2.717-.108.487-6.124-1.358a44.157 44.157 0 00-6.59-.951l.034-.498a43.324 43.324 0 00-13.362 1.172l.12.484a43.282 43.282 0 00-12.23 5.133l-.261-.425a44.373 44.373 0 00-10.241 8.67l.376.328a43.283 43.283 0 00-7.08 11.215l-.458-.198a43.325 43.325 0 00-3.36 12.986l.496.049a44.154 44.154 0 00-.149 6.656l.312 5.93-.498.026.623 11.86.498-.025.624 11.86-.498.026.623 11.86.498-.025.623 11.86-.497.026.623 11.861.498-.026.312 5.93.298 5.681-.498.026.598 11.362.497-.026.598 11.362-.498.027.597 11.362.498-.026.597 11.362-.498.026.598 11.362.497-.026.598 11.362-.498.026.597 11.362.498-.026.299 5.681a43.64 43.64 0 00.573 5.123l-.492.085a43.677 43.677 0 002.974 9.969l.457-.199a43.31 43.31 0 005.186 8.883l-.397.301a44.04 44.04 0 007.21 7.501l.316-.385a43.364 43.364 0 008.671 5.533l-.216.449a43.678 43.678 0 009.844 3.366l.104-.488c1.664.355 3.364.615 5.096.775l6.044.558-.046.497 12.088 1.116.046-.497 12.088 1.116-.046.497 12.089 1.116.045-.497 12.089 1.116-.046.497 12.088 1.116.046-.497 12.088 1.116-.046.497 12.089 1.116.045-.497 12.089 1.116-.046.497 12.088 1.115.046-.496 12.088 1.116-.046.496 12.089 1.116.045-.496 12.089 1.116-.046.496 12.088 1.116.046-.496 12.088 1.116-.046.496 12.089 1.116.045-.496 12.089 1.116-.046.496 12.088 1.116.046-.496 12.088 1.116-.046.496 12.089 1.116.045-.496 6.045.558c2.08.192 4.135.235 6.156.137l.024.498a43.47 43.47 0 0012.189-2.357l-.164-.471a43.313 43.313 0 0010.905-5.636l.289.406a44.231 44.231 0 009.003-8.552l-.39-.31a43.341 43.341 0 006.188-10.602l.462.188a43.455 43.455 0 002.979-12.052l-.496-.049a43.94 43.94 0 00.179-6.156l-.265-6.502.498-.02-.53-13.005-.498.02-.53-13.004.498-.021-.53-13.004-.498.02-.53-13.005.498-.02-.53-13.005-.498.02-.53-13.004.498-.021-.529-13.004-.499.02-.53-13.005.499-.02z" fill="#FBFBFB" stroke="#D9DADB" stroke-width=".997" stroke-dasharray="11.97 11.97"/></svg>