<svg width="44" height="44" fill="none" xmlns="http://www.w3.org/2000/svg"><g clip-path="url(#clip0)" fill="#fff"><path d="M40.41 21.855h-6.222V2.208a.833.833 0 00-.52-.77.847.847 0 00-.915.18l-2.382 2.36-2.381-2.36a.847.847 0 00-1.189 0l-2.381 2.36-2.381-2.36a.847.847 0 00-1.19 0l-2.38 2.36-2.382-2.36a.846.846 0 00-1.189 0l-2.381 2.36-2.381-2.36a.847.847 0 00-1.19 0l-2.38 2.36-2.382-2.36a.846.846 0 00-1.183-.004.826.826 0 00-.25.615v37.442C2.75 42.058 4.71 44 7.12 44h29.757s0 0 0 0 0 0 0 0c2.411 0 4.372-1.942 4.372-4.329V22.688a.837.837 0 00-.84-.833zM7.12 42.335c-1.483 0-2.69-1.195-2.69-2.664V4.219l1.54 1.524a.847.847 0 001.189 0L9.54 3.385l2.382 2.358a.847.847 0 001.188 0l2.382-2.358 2.381 2.358a.847.847 0 001.19 0l2.38-2.358 2.382 2.358a.847.847 0 001.189 0l2.381-2.358 2.381 2.358a.846.846 0 001.19 0l1.54-1.526v18.47l.001.023v16.961a4.28 4.28 0 00.93 2.664H7.12zm32.448-2.664c0 1.469-1.207 2.664-2.69 2.664-1.483 0-2.69-1.195-2.69-2.664V23.52h5.38v16.151z" stroke="#fff" stroke-width=".85"/><path d="M27.246 13.75H13.632a.86.86 0 100 1.719h13.614a.86.86 0 100-1.719zm-17.529.252a.866.866 0 00-.608-.252.866.866 0 00-.607.252.866.866 0 00-.252.607.864.864 0 00.859.86.866.866 0 00.608-.252.866.866 0 00.252-.608.866.866 0 00-.252-.607zm17.529 5.42H13.632a.86.86 0 100 1.719h13.614a.86.86 0 100-1.72zm-17.529.252a.866.866 0 00-.608-.252.866.866 0 00-.607.252.866.866 0 00-.252.607.864.864 0 00.859.86.866.866 0 00.608-.252.866.866 0 00.252-.608.866.866 0 00-.252-.607zm17.529 5.419H13.632a.86.86 0 100 1.719h13.614a.86.86 0 100-1.719zm-17.529.252a.866.866 0 00-.608-.252.866.866 0 00-.607.252.866.866 0 00-.252.608.864.864 0 00.859.859.866.866 0 00.608-.252.866.866 0 00.252-.607.866.866 0 00-.252-.608z"/></g><defs><clipPath id="clip0"><path fill="#fff" d="M0 0h44v44H0z"/></clipPath></defs></svg>