<svg width="32" height="32" fill="none" xmlns="http://www.w3.org/2000/svg"><path fill-rule="evenodd" clip-rule="evenodd" d="M16 32c8.837 0 16-7.163 16-16S24.837 0 16 0 0 7.163 0 16s7.163 16 16 16z" fill="#8C1A6F"/><path d="M19.669 8H12.33A4.336 4.336 0 008 12.331v7.338A4.336 4.336 0 0012.331 24h7.338A4.336 4.336 0 0024 19.669v-7.338A4.336 4.336 0 0019.669 8zM16 20.375A4.38 4.38 0 0111.625 16 4.38 4.38 0 0116 11.625 4.38 4.38 0 0120.375 16 4.38 4.38 0 0116 20.375zm4.48-7.718c-.713 0-1.293-.58-1.293-1.293s.58-1.293 1.293-1.293a1.294 1.294 0 010 2.586z" fill="#F5F5F5"/><path d="M16 12.563A3.44 3.44 0 0012.563 16 3.44 3.44 0 0016 19.437 3.44 3.44 0 0019.437 16 3.44 3.44 0 0016 12.563zm4.48-1.553a.355.355 0 100 .71.355.355 0 000-.71z" fill="#F5F5F5"/></svg>