<svg width="191" height="32" fill="none" xmlns="http://www.w3.org/2000/svg"><path d="M189.986 10.937l-30.252 1.053a15.42 15.42 0 00-.486 3.848c0 .486 0 .932.04 1.418l31.022 2.187c.284-1.175.406-2.39.406-3.605a14.4 14.4 0 00-.73-4.901zm-.527-1.377a15.72 15.72 0 00-3.893-5.428l-24.128 3.605a18.129 18.129 0 00-1.338 2.835l29.359-1.013zm-1.662 15.554l-22.304 3.362a15.788 15.788 0 009.53 3.2 15.69 15.69 0 0012.774-6.562zm-3.65-22.198A15.678 15.678 0 00175.023 0c-4.907 0-9.489 2.309-12.49 6.157l21.614-3.24zm-24.615 15.758a15.772 15.772 0 004.582 8.627l24.656-3.686c.486-.89.892-1.823 1.216-2.754l-30.454-2.188zM13.626 5.347c.77 0 1.297.243 1.297 1.175V28.84h5.272V8.709c0-2.511-.365-5.225-4.542-5.225H4.583C.364 3.484 0 6.157 0 8.709v20.172h5.272V6.521c0-.931.527-1.174 1.297-1.174h7.057zm45.58 13.326L56.327 8.79c-.405-1.458-.365-2.39-1.176-2.39-.81 0-.933 1.013-1.298 2.47l-2.757 9.803h8.11zM45.865 28.841l5.92-21.63c.77-2.593 1.866-4.416 4.867-4.416 3.528 0 4.095 2.511 5.028 5.59l6.042 20.456h-5.555l-2.23-7.697h-9.49l-2.109 7.697h-2.473zm-7.3-.001L32.766 8.83c-.405-1.458-.365-2.43-1.176-2.43-.81 0-.933 1.013-1.297 2.47l-5.556 19.97h-2.433l5.92-21.63c.73-2.552 1.866-4.375 4.826-4.375 3.528 0 4.096 2.512 5.028 5.59l6.043 20.456h-5.556v-.04zm31.225 0V3.485h5.232v11.058h9.61V3.484h5.353V28.88h-5.352V16.972h-9.611v11.869H69.79zm39.619-23.493h-9.976c-.77 0-1.298.243-1.298 1.175v7.98h9.287v2.47h-9.287v8.223c0 1.175.69 1.742 1.988 1.742h10.016V28.8h-13.22c-2.514 0-4.055-1.175-4.055-4.456V8.71c0-2.511.365-5.225 4.582-5.225h12.004v1.863h-.041zm10.058 23.493V5.348h-7.421V3.484H132.2v1.903h-7.421v23.494h-5.312v-.04zm23.601-10.167l-2.88-9.883c-.405-1.458-.364-2.39-1.176-2.39-.811 0-.932 1.013-1.297 2.47l-2.758 9.803h8.111zm-13.342 10.168l5.921-21.63c.77-2.593 1.865-4.416 4.866-4.416 3.528 0 4.096 2.511 5.028 5.59l6.043 20.456h-5.597l-2.23-7.697h-9.489l-2.109 7.697h-2.433z" fill="#2D2D2D"/></svg>