<svg width="143" height="24" fill="none" xmlns="http://www.w3.org/2000/svg"><path d="M142.241 8.203l-22.649.79a11.564 11.564 0 00-.364 2.886c0 .364 0 .698.03 1.063l23.226 1.64c.213-.88.304-1.792.304-2.704a10.805 10.805 0 00-.547-3.675zm-.394-1.033a11.793 11.793 0 00-2.915-4.071l-18.065 2.704a13.545 13.545 0 00-1.002 2.126l21.982-.76zm-1.245 11.665l-16.699 2.522a11.808 11.808 0 007.135 2.4c3.795 0 7.347-1.823 9.564-4.922zm-2.733-16.648A11.724 11.724 0 00131.038 0c-3.674 0-7.105 1.732-9.351 4.618l16.182-2.43zM119.44 14.005a11.832 11.832 0 003.431 6.471l18.459-2.764c.365-.669.668-1.368.911-2.066l-22.801-1.64zM10.201 4.01c.577 0 .972.182.972.881v16.74h3.947V6.53c0-1.883-.273-3.918-3.4-3.918H3.43C.274 2.613 0 4.618 0 6.532V21.66h3.947V4.89c0-.699.395-.88.971-.88h5.283zm34.126 9.995l-2.155-7.413C41.867 5.5 41.898 4.8 41.29 4.8s-.698.76-.971 1.853l-2.065 7.352h6.072zm-9.989 7.625l4.433-16.222c.577-1.945 1.397-3.312 3.643-3.312 2.642 0 3.067 1.884 3.765 4.193l4.524 15.341h-4.16l-1.67-5.772H37.77l-1.58 5.772h-1.852zm-5.465 0L24.531 6.623c-.303-1.094-.273-1.823-.88-1.823s-.698.76-.972 1.853L18.52 21.63H16.7l4.43-16.222c.546-1.914 1.396-3.281 3.613-3.281 2.641 0 3.066 1.883 3.765 4.192l4.523 15.342h-4.159v-.03zm23.379 0V2.613h3.916v8.293h7.196V2.613h4.007V21.66h-4.007v-8.932h-7.196v8.901h-3.916zM81.914 4.01h-7.47c-.576 0-.97.182-.97.881v5.985h6.952v1.853h-6.953v6.167c0 .881.516 1.306 1.488 1.306h7.5V21.6h-9.898c-1.883 0-3.037-.881-3.037-3.342V6.532c0-1.884.274-3.92 3.431-3.92h8.987V4.01h-.03zm7.53 17.62V4.01h-5.556V2.613h15.09V4.04H93.42v17.62h-3.977v-.03zm17.67-7.625l-2.156-7.413c-.303-1.093-.273-1.792-.88-1.792-.608 0-.699.76-.972 1.853l-2.064 7.352h6.072zm-9.989 7.625l4.433-16.222c.577-1.945 1.396-3.312 3.643-3.312 2.641 0 3.066 1.884 3.765 4.193l4.524 15.341h-4.19l-1.67-5.772h-7.105l-1.578 5.772h-1.822z" fill="#fff"/></svg>