<svg width="32" height="32" fill="none" xmlns="http://www.w3.org/2000/svg"><path fill-rule="evenodd" clip-rule="evenodd" d="M16 32c8.837 0 16-7.163 16-16S24.837 0 16 0 0 7.163 0 16s7.163 16 16 16z" fill="#8C1A6F"/><path fill-rule="evenodd" clip-rule="evenodd" d="M16.17 20.887s.288-.03.436-.18c.135-.138.13-.397.13-.397s-.017-1.21.578-1.39c.587-.175 1.34 1.171 2.14 1.69.605.39 1.063.305 1.063.305l2.137-.028s1.118-.065.588-.895c-.044-.067-.309-.613-1.588-1.735-1.34-1.173-1.16-.983.453-3.014.983-1.236 1.376-1.991 1.253-2.314-.117-.309-.84-.227-.84-.227l-2.406.014s-.178-.022-.31.052a.647.647 0 00-.213.244s-.38.956-.888 1.77c-1.072 1.717-1.5 1.808-1.675 1.701-.408-.248-.306-.998-.306-1.53 0-1.665.268-2.358-.52-2.538-.262-.06-.454-.099-1.124-.105-.858-.009-1.584.002-1.996.192-.274.127-.485.409-.356.425.159.02.519.091.71.337.246.317.238 1.027.238 1.027s.142 1.959-.331 2.202c-.324.167-.769-.174-1.724-1.731-.49-.798-.859-1.68-.859-1.68s-.07-.165-.198-.253c-.155-.107-.37-.14-.37-.14l-2.286.013s-.343.01-.47.15c-.111.125-.008.384-.008.384s1.79 3.953 3.817 5.945c1.858 1.826 3.968 1.706 3.968 1.706h.956z" fill="#F5F5F5"/></svg>